<?xml version="1.0" encoding="UTF-8" standalone="no"?>
<!DOCTYPE svg PUBLIC "-//W3C//DTD SVG 1.1//EN"
 "http://www.w3.org/Graphics/SVG/1.1/DTD/svg11.dtd">
<!-- Generated by graphviz version 12.1.1 (20240910.0053)
 -->
<!-- Title: INFRA Pages: 1 -->
<svg width="636pt" height="188pt"
 viewBox="0.00 0.00 635.52 188.00" xmlns="http://www.w3.org/2000/svg" xmlns:xlink="http://www.w3.org/1999/xlink">
<g id="graph0" class="graph" transform="scale(1 1) rotate(0) translate(4 184)">
<title>INFRA</title>
<polygon fill="white" stroke="none" points="-4,4 -4,-184 631.52,-184 631.52,4 -4,4"/>
<!-- discovery&#45;server -->
<g id="node1" class="node">
<title>discovery&#45;server</title>
<path fill="#b7e0ff" stroke="black" stroke-width="2" d="M289.24,-72C289.24,-72 165,-72 165,-72 159,-72 153,-66 153,-60 153,-60 153,-12 153,-12 153,-6 159,0 165,0 165,0 289.24,0 289.24,0 295.24,0 301.24,-6 301.24,-12 301.24,-12 301.24,-60 301.24,-60 301.24,-66 295.24,-72 289.24,-72"/>
<text text-anchor="middle" x="227.12" y="-40.2" font-family="Arial" font-size="14.00">discovery&#45;server</text>
<text text-anchor="middle" x="227.12" y="-23.4" font-family="Arial" font-size="14.00">(AWS::ECS::Service)</text>
</g>
<!-- user&#45;service -->
<g id="node2" class="node">
<title>user&#45;service</title>
<path fill="#b7e0ff" stroke="black" stroke-width="2" d="M468.24,-180C468.24,-180 344,-180 344,-180 338,-180 332,-174 332,-168 332,-168 332,-120 332,-120 332,-114 338,-108 344,-108 344,-108 468.24,-108 468.24,-108 474.24,-108 480.24,-114 480.24,-120 480.24,-120 480.24,-168 480.24,-168 480.24,-174 474.24,-180 468.24,-180"/>
<text text-anchor="middle" x="406.12" y="-148.2" font-family="Arial" font-size="14.00">user&#45;service</text>
<text text-anchor="middle" x="406.12" y="-131.4" font-family="Arial" font-size="14.00">(AWS::ECS::Service)</text>
</g>
<!-- user&#45;service&#45;&gt;discovery&#45;server -->
<g id="edge1" class="edge">
<title>user&#45;service&#45;&gt;discovery&#45;server</title>
<path fill="none" stroke="black" d="M346.52,-107.7C330.45,-98.19 312.93,-87.81 296.38,-78.01"/>
<polygon fill="black" stroke="black" points="298.46,-75.18 288.07,-73.09 294.89,-81.2 298.46,-75.18"/>
</g>
<!-- mysql&#45;db -->
<g id="node5" class="node">
<title>mysql&#45;db</title>
<path fill="#ffcfb3" stroke="black" stroke-width="2" d="M493.47,-65.45C493.47,-69.07 454.32,-72 406.12,-72 357.92,-72 318.77,-69.07 318.77,-65.45 318.77,-65.45 318.77,-6.55 318.77,-6.55 318.77,-2.93 357.92,0 406.12,0 454.32,0 493.47,-2.93 493.47,-6.55 493.47,-6.55 493.47,-65.45 493.47,-65.45"/>
<path fill="none" stroke="black" stroke-width="2" d="M493.47,-65.45C493.47,-61.84 454.32,-58.91 406.12,-58.91 357.92,-58.91 318.77,-61.84 318.77,-65.45"/>
<text text-anchor="middle" x="406.12" y="-40.2" font-family="Arial" font-size="14.00">mysql&#45;db</text>
<text text-anchor="middle" x="406.12" y="-23.4" font-family="Arial" font-size="14.00">(AWS::RDS::DBInstance)</text>
</g>
<!-- user&#45;service&#45;&gt;mysql&#45;db -->
<g id="edge2" class="edge">
<title>user&#45;service&#45;&gt;mysql&#45;db</title>
<path fill="none" stroke="black" d="M406.12,-107.7C406.12,-99.93 406.12,-91.57 406.12,-83.43"/>
<polygon fill="black" stroke="black" points="409.62,-83.66 406.12,-73.66 402.62,-83.66 409.62,-83.66"/>
</g>
<!-- testservice -->
<g id="node3" class="node">
<title>testservice</title>
<path fill="#b7e0ff" stroke="black" stroke-width="2" d="M302.24,-180C302.24,-180 178,-180 178,-180 172,-180 166,-174 166,-168 166,-168 166,-120 166,-120 166,-114 172,-108 178,-108 178,-108 302.24,-108 302.24,-108 308.24,-108 314.24,-114 314.24,-120 314.24,-120 314.24,-168 314.24,-168 314.24,-174 308.24,-180 302.24,-180"/>
<text text-anchor="middle" x="240.12" y="-148.2" font-family="Arial" font-size="14.00">testservice</text>
<text text-anchor="middle" x="240.12" y="-131.4" font-family="Arial" font-size="14.00">(AWS::ECS::Service)</text>
</g>
<!-- testservice&#45;&gt;discovery&#45;server -->
<g id="edge3" class="edge">
<title>testservice&#45;&gt;discovery&#45;server</title>
<path fill="none" stroke="black" d="M235.79,-107.7C234.84,-99.93 233.81,-91.57 232.82,-83.43"/>
<polygon fill="black" stroke="black" points="236.31,-83.14 231.61,-73.64 229.36,-84 236.31,-83.14"/>
</g>
<!-- testservice&#45;&gt;mysql&#45;db -->
<g id="edge4" class="edge">
<title>testservice&#45;&gt;mysql&#45;db</title>
<path fill="none" stroke="black" d="M295.4,-107.7C310.31,-98.18 326.58,-87.79 341.94,-77.98"/>
<polygon fill="black" stroke="black" points="343.55,-81.11 350.09,-72.78 339.78,-75.21 343.55,-81.11"/>
</g>
<!-- api&#45;gateway -->
<g id="node4" class="node">
<title>api&#45;gateway</title>
<path fill="#e78f81" stroke="black" stroke-width="2" d="M136.24,-180C136.24,-180 12,-180 12,-180 6,-180 0,-174 0,-168 0,-168 0,-120 0,-120 0,-114 6,-108 12,-108 12,-108 136.24,-108 136.24,-108 142.24,-108 148.24,-114 148.24,-120 148.24,-120 148.24,-168 148.24,-168 148.24,-174 142.24,-180 136.24,-180"/>
<text text-anchor="middle" x="74.12" y="-148.2" font-family="Arial" font-size="14.00">api&#45;gateway</text>
<text text-anchor="middle" x="74.12" y="-131.4" font-family="Arial" font-size="14.00">(AWS::ECS::Service)</text>
</g>
<!-- api&#45;gateway&#45;&gt;discovery&#45;server -->
<g id="edge5" class="edge">
<title>api&#45;gateway&#45;&gt;discovery&#45;server</title>
<path fill="none" stroke="black" d="M125.07,-107.7C138.42,-98.46 152.94,-88.39 166.73,-78.84"/>
<polygon fill="black" stroke="black" points="168.66,-81.76 174.89,-73.18 164.68,-76 168.66,-81.76"/>
</g>
<!-- spring&#45;network -->
<g id="node6" class="node">
<title>spring&#45;network</title>
<path fill="#e6e6e6" stroke="black" stroke-width="2" d="M615.52,-180C615.52,-180 510.72,-180 510.72,-180 504.72,-180 498.72,-174 498.72,-168 498.72,-168 498.72,-120 498.72,-120 498.72,-114 504.72,-108 510.72,-108 510.72,-108 615.52,-108 615.52,-108 621.52,-108 627.52,-114 627.52,-120 627.52,-120 627.52,-168 627.52,-168 627.52,-174 621.52,-180 615.52,-180"/>
<text text-anchor="middle" x="563.12" y="-148.2" font-family="Arial" font-size="14.00">spring&#45;network</text>
<text text-anchor="middle" x="563.12" y="-131.4" font-family="Arial" font-size="14.00">(AWS::EC2::VPC)</text>
</g>
</g>
</svg>
